# xmcd
#
# Track frame offsets: 
#        182
#        18207
#        34497
#
# Disc length: 699 seconds
#
# Revision: 1
# Processed by: cddbd v1.5.2PL0 Copyright (c) Steve Scherf et al.
# Submitted via: ExactAudioCopy v1.1
#
DISCID=1c02b903
DTITLE=Bar-Fly - Beg, Borrow And Die [74321 50356 2]
DYEAR=1997
DGENRE=Rock
TTITLE0=Beg, Borrow And Die
TTITLE1=Perfect World
TTITLE2=Beg, Borrow And Die (Instrumental Version)
EXTD=
EXTT0=
EXTT1=
EXTT2=
PLAYORDER=
